# xmcd
#
# Track frame offsets:
#	150
#	13019
#	26403
#	37075
#
# Disc length: 644 seconds
#
# Revision: 0
# Processed by: cddbd v1.5.2PL0 Copyright (c) Steve Scherf et al.
# Submitted via: EasyCDDAExtractor 16.0.6.1
#
DISCID=28028204
DTITLE=Νταλάρας Γιώργος - Οι Μάηδες οι ήλιοι μου-4 τρ. του LP-Γ. Νταλάρας
DYEAR=1978
DGENRE=Έντεχνη λαϊκή
TTITLE0=Η φτώχεια μου καθρέφτης [Χρ. Γκάρτζου-Λ. Τεάζη]
TTITLE1=Μετανάστης [Γ. Γερασιμίδη-Γ. Καλατζόπουλου]
TTITLE2=Μόνο η αγάπη μένει [Χρ. Γκάρτζου-Σ. Τσώτου]
TTITLE3=Άει μωρέ παιδιά [Χρ. Γκάρτζου-Λ. Τεάζη]
EXTD=
EXTT0=
EXTT1=
EXTT2=
EXTT3=
PLAYORDER=
